<?xml version="1.0" encoding="UTF-8"?>
<svg xmlns="http://www.w3.org/2000/svg" width="1260" height="167" viewBox="0 0 1260 167">
  <g transform="matrix(1.3333333,0,0,-1.3333333,0,166.57333)">
    <path fill="#dcebf2" d="M 386.9397,124.9305 H 8.4257 c -4.653,0 -8.426,-3.772 -8.426,-8.426 V 8.4255 c 0,-4.653 3.773,-8.425 8.426,-8.425 h 378.514 c 4.653,0 8.426,3.772 8.426,8.425 v 108.079 c 0,4.654 -3.773,8.426 -8.426,8.426" />
    <path fill="#dcebf2" d="m 936.7915,124.4016 -523.105,1.057 c -4.649,0.01 -8.425,-3.751 -8.434,-8.4 l -0.219,-108.561 c -0.009,-4.649 3.752,-8.425 8.401,-8.435 l 523.104,-1.057 c 4.649,-0.009 8.425,3.752 8.435,8.401 l 0.219,108.561 c 0.009,4.648 -3.752,8.425 -8.401,8.434" />
    <text transform="matrix(1,0,0,-1,132.6484,105.5601)" fill="#231f20" font-family="Times New Roman" font-size="16px">
      <tspan x="0 5.3280001 13.328 17.775999 24.879999 32.880001 38.208 45.312 49.759998 53.759998 62.655998 70.655998 78.655998 85.760002 91.087997 99.087997 103.536 109.76 114.208 122.208" y="0">Integral Supervision</tspan>
    </text>
    <text transform="matrix(1,0,0,-1,257.6484,28.5601)" fill="#231f20" font-family="Times New Roman" font-size="13px">
      <tspan x="0 7.9429998 14.443 19.5 406.00299 413.94601 420.44601 425.50299" y="0">LossLoss</tspan>
    </text>
    <text transform="matrix(1,0,0,-1,597.5625,105.3379)" fill="#231f20" font-family="Times New Roman" font-size="16px">
      <tspan x="0 11.552 16 21.038401 26.3664 33.470402 38.798401 45.902401 53.902401 58.350399 62.798401 69.902397 74.350403 78.350403 87.246399 95.246399 103.2464 110.3504 115.6784 123.6784 128.1264 134.3504 138.7984 146.7984" y="0">Differential Supervision</tspan>
    </text>
    <path fill="none" stroke="#6d6f71" d="m 293.4713,77.8606 v -64.441 h 84.006" />
    <path fill="#6d6f71" d="m 288.485,76.4016 4.986,8.635 4.987,-8.635 z" />
    <path fill="#6d6f71" d="m 376.0181,8.4335 8.635,4.986 -8.635,4.987 z" />
    <path fill="none" stroke="#231f20" d="m 261.4244,46.6113 h 16.499" />
    <path fill="#231f20" d="m 262.8834,41.625 -8.635,4.986 8.635,4.987 z" />
    <path fill="#231f20" d="m 276.4641,41.625 8.635,4.986 -8.635,4.987 z" />
    <path fill="none" stroke="#231f20" d="m 666.4244,46.6113 h 16.499" />
    <path fill="#231f20" d="m 667.8834,41.625 -8.635,4.986 8.635,4.987 z" />
    <path fill="#231f20" d="m 681.4641,41.625 8.635,4.986 -8.635,4.987 z" />
    <path fill="none" stroke="#231f20" d="m 108.2482,46.6113 h 38.356" />
    <path fill="#231f20" d="m 145.1449,41.625 8.635,4.986 -8.635,4.987 z" />
    <path fill="#231f20" d="m 312.4883,80.156 -0.505,-2.466 -0.323,0.054 c -0.002,0.504 0.178,1.14 -0.292,1.502 -0.542,0.416 -2.565,0.428 -3.267,0.379 -0.217,-0.015 -0.491,-0.059 -0.607,-0.262 l -1.115,-3.887 1.611,0.028 c 0.254,0.039 0.513,0.055 0.758,0.139 0.578,0.199 0.846,0.799 1.079,1.318 l 0.306,-0.097 -1.204,-3.742 -0.278,0.058 c 0.036,0.482 0.337,1.33 -0.217,1.619 -0.294,0.154 -1.089,0.078 -1.454,0.087 l -0.702,0.056 -0.053,-0.026 c -0.309,-1.187 -0.7,-2.357 -0.993,-3.548 -0.08,-0.326 -0.253,-0.809 -0.054,-1.114 0.187,-0.287 0.806,-0.331 1.117,-0.327 v -0.28 h -4.036 v 0.28 c 0.301,0.021 0.719,0.083 0.937,0.311 0.236,0.245 0.385,0.915 0.485,1.253 0.694,2.35 1.288,4.733 1.96,7.09 0.05,0.245 0.137,0.678 0.058,0.909 -0.133,0.384 -0.891,0.368 -1.226,0.414 v 0.252 z" />
    <path fill="#231f20" d="m 315.1226,67.9095 h -2.943 c -0.003,-0.833 0.047,-1.716 0.344,-2.501 0.241,-0.639 0.826,-1.377 1.571,-0.913 0.952,0.592 0.992,2.419 1.028,3.414 m 0,0.701 c -0.043,0.932 -0.081,2.48 -0.788,3.177 -0.742,0.733 -1.45,0.153 -1.776,-0.628 -0.325,-0.779 -0.375,-1.713 -0.379,-2.549 z m -1.744,3.971 c 0.964,0.109 1.821,-0.473 2.316,-1.255 0.881,-1.392 0.905,-4.025 0.325,-5.534 -0.663,-1.725 -2.466,-2.67 -3.98,-1.232 -1.508,1.432 -1.497,5.38 -0.291,6.99 0.353,0.472 1.033,0.964 1.63,1.031" />
    <path fill="#231f20" d="m 321.9044,78.965 c 0.08,-0.483 0.814,-0.431 1.177,-0.462 v -0.169 h -3.447 v 0.169 c 0.598,0.039 1.098,0.026 1.174,0.746 l 0.004,6.05 c -0.05,0.759 -0.825,0.329 -1.248,0.181 -0.025,0 -0.019,0.121 -0.01,0.15 0.039,0.118 1.971,0.951 2.209,1.127 0.035,0.028 0.141,0.009 0.141,-0.029 z" />
    <path fill="#231f20" d="m 317.2729,87.6895 c 0.086,0.018 0.188,-0.012 0.172,-0.115 -0.008,-0.051 -0.536,-0.611 -0.624,-0.724 -2.101,-2.691 -2.112,-8.236 0.068,-10.883 0.107,-0.13 0.508,-0.505 0.546,-0.606 0.026,-0.069 -0.01,-0.152 -0.085,-0.167 -0.184,-0.017 -0.824,0.641 -0.965,0.801 -2.531,2.852 -2.462,8.301 0.153,11.083 0.117,0.125 0.596,0.582 0.735,0.611" />
    <path fill="#231f20" d="m 325.1589,87.6908 c 0.11,0.07 0.441,-0.213 0.529,-0.29 2.686,-2.328 2.959,-7.286 1.294,-10.262 -0.323,-0.576 -1.022,-1.522 -1.582,-1.865 -0.076,-0.047 -0.223,-0.151 -0.268,-0.002 -0.013,0.043 -0.009,0.079 0.01,0.12 0.027,0.059 0.404,0.416 0.489,0.519 1.085,1.318 1.584,3.129 1.655,4.819 0.093,2.193 -0.244,4.643 -1.724,6.349 -0.147,0.169 -0.509,0.379 -0.403,0.612" />
    <path fill="none" stroke="#6d6f71" d="m 699.4714,77.8606 v -64.441 h 84.006" />
    <path fill="#6d6f71" d="m 694.485,76.4016 4.986,8.635 4.987,-8.635 z" />
    <path fill="#6d6f71" d="m 782.0181,8.4335 8.635,4.986 -8.635,4.987 z" />
    <path fill="#231f20" d="m 735.7755,84.9713 -0.505,-2.466 -0.323,0.054 c -0.002,0.504 0.178,1.14 -0.292,1.502 -0.542,0.416 -2.565,0.428 -3.267,0.379 -0.217,-0.015 -0.491,-0.059 -0.607,-0.262 l -1.115,-3.887 1.611,0.028 c 0.254,0.039 0.513,0.055 0.758,0.139 0.578,0.199 0.846,0.799 1.079,1.318 l 0.306,-0.097 -1.204,-3.742 -0.278,0.058 c 0.036,0.482 0.337,1.33 -0.217,1.619 -0.294,0.154 -1.089,0.078 -1.454,0.087 l -0.702,0.056 -0.053,-0.026 c -0.309,-1.187 -0.7,-2.357 -0.993,-3.548 -0.08,-0.326 -0.253,-0.809 -0.054,-1.114 0.187,-0.287 0.806,-0.331 1.117,-0.327 v -0.28 h -4.036 v 0.28 c 0.301,0.021 0.719,0.083 0.937,0.311 0.236,0.245 0.385,0.915 0.485,1.253 0.694,2.35 1.288,4.733 1.96,7.09 0.05,0.245 0.137,0.678 0.058,0.909 -0.133,0.384 -0.891,0.368 -1.226,0.414 v 0.252 z" />
    <path fill="#231f20" d="m 738.4097,72.7248 h -2.943 c -0.003,-0.833 0.047,-1.716 0.344,-2.501 0.241,-0.639 0.826,-1.377 1.571,-0.913 0.952,0.592 0.992,2.419 1.028,3.414 m 0,0.701 c -0.043,0.932 -0.081,2.48 -0.788,3.177 -0.742,0.733 -1.45,0.153 -1.776,-0.628 -0.325,-0.779 -0.375,-1.713 -0.379,-2.549 z m -1.744,3.971 c 0.964,0.109 1.821,-0.473 2.316,-1.255 0.881,-1.392 0.905,-4.025 0.325,-5.534 -0.663,-1.725 -2.466,-2.67 -3.98,-1.232 -1.508,1.432 -1.497,5.38 -0.292,6.99 0.354,0.472 1.034,0.964 1.631,1.031" />
    <path fill="#231f20" d="m 745.1915,83.7802 c 0.08,-0.483 0.814,-0.431 1.177,-0.462 v -0.169 h -3.447 v 0.169 c 0.598,0.039 1.098,0.026 1.174,0.746 l 0.004,6.05 c -0.05,0.759 -0.825,0.329 -1.248,0.181 -0.025,0 -0.019,0.121 -0.009,0.15 0.038,0.118 1.97,0.951 2.208,1.127 0.035,0.028 0.141,0.009 0.141,-0.029 z" />
    <path fill="#231f20" d="m 740.56,92.5048 c 0.086,0.018 0.188,-0.012 0.172,-0.115 -0.008,-0.051 -0.536,-0.611 -0.624,-0.724 -2.101,-2.691 -2.112,-8.236 0.068,-10.883 0.107,-0.13 0.508,-0.505 0.546,-0.606 0.026,-0.069 -0.01,-0.152 -0.085,-0.167 -0.184,-0.017 -0.824,0.641 -0.965,0.801 -2.531,2.852 -2.462,8.301 0.153,11.083 0.117,0.125 0.596,0.582 0.735,0.611" />
    <path fill="#231f20" d="m 748.446,92.506 c 0.11,0.07 0.441,-0.213 0.529,-0.29 2.686,-2.328 2.959,-7.286 1.294,-10.262 -0.323,-0.576 -1.022,-1.522 -1.582,-1.865 -0.076,-0.047 -0.223,-0.151 -0.268,-0.002 -0.013,0.043 -0.009,0.079 0.01,0.12 0.027,0.059 0.404,0.416 0.489,0.519 1.085,1.318 1.584,3.129 1.655,4.819 0.093,2.193 -0.244,4.643 -1.724,6.349 -0.147,0.169 -0.509,0.379 -0.403,0.612" />
    <path fill="none" stroke="#6d6f71" d="m 839.4714,77.8606 v -64.441 h 84.006" />
    <path fill="#6d6f71" d="m 834.485,76.4016 4.986,8.635 4.987,-8.635 z" />
    <path fill="#6d6f71" d="m 922.0181,8.4335 8.635,4.986 -8.635,4.987 z" />
    <path fill="#231f20" d="m 859.4883,82.156 -0.505,-2.466 -0.323,0.054 c -0.002,0.504 0.178,1.14 -0.292,1.502 -0.542,0.416 -2.565,0.428 -3.267,0.379 -0.217,-0.015 -0.491,-0.059 -0.607,-0.262 l -1.115,-3.887 1.611,0.028 c 0.254,0.039 0.513,0.055 0.758,0.139 0.578,0.199 0.846,0.799 1.079,1.318 l 0.306,-0.097 -1.204,-3.742 -0.278,0.058 c 0.036,0.482 0.337,1.33 -0.217,1.619 -0.294,0.154 -1.089,0.078 -1.454,0.087 l -0.702,0.056 -0.053,-0.026 c -0.309,-1.187 -0.7,-2.357 -0.993,-3.548 -0.08,-0.326 -0.253,-0.809 -0.054,-1.114 0.187,-0.287 0.806,-0.331 1.117,-0.327 v -0.28 h -4.036 v 0.28 c 0.301,0.021 0.719,0.083 0.937,0.311 0.236,0.245 0.385,0.915 0.485,1.253 0.694,2.35 1.288,4.733 1.96,7.09 0.05,0.245 0.137,0.678 0.058,0.909 -0.133,0.384 -0.891,0.368 -1.226,0.414 v 0.252 z" />
    <path fill="#231f20" d="m 862.1226,69.9095 h -2.943 c -0.003,-0.833 0.047,-1.716 0.344,-2.501 0.241,-0.639 0.826,-1.377 1.571,-0.913 0.952,0.592 0.992,2.419 1.028,3.414 m 0,0.701 c -0.043,0.932 -0.081,2.48 -0.788,3.177 -0.742,0.733 -1.45,0.153 -1.776,-0.628 -0.325,-0.779 -0.375,-1.713 -0.379,-2.549 z m -1.744,3.971 c 0.964,0.109 1.821,-0.473 2.316,-1.255 0.881,-1.392 0.905,-4.025 0.325,-5.534 -0.663,-1.725 -2.466,-2.67 -3.98,-1.232 -1.508,1.432 -1.497,5.38 -0.292,6.99 0.354,0.472 1.034,0.964 1.631,1.031" />
    <path fill="#231f20" d="m 868.9044,80.965 c 0.08,-0.483 0.814,-0.431 1.177,-0.462 v -0.169 h -3.447 v 0.169 c 0.598,0.039 1.098,0.026 1.174,0.746 l 0.004,6.05 c -0.05,0.759 -0.825,0.329 -1.248,0.181 -0.025,0 -0.019,0.121 -0.01,0.15 0.039,0.118 1.971,0.951 2.209,1.127 0.035,0.028 0.141,0.009 0.141,-0.029 z" />
    <path fill="#231f20" d="m 864.2728,89.6895 c 0.086,0.018 0.188,-0.012 0.172,-0.115 -0.008,-0.051 -0.536,-0.611 -0.624,-0.724 -2.101,-2.691 -2.112,-8.236 0.068,-10.883 0.107,-0.13 0.508,-0.505 0.546,-0.606 0.026,-0.069 -0.01,-0.152 -0.085,-0.167 -0.184,-0.017 -0.824,0.641 -0.965,0.801 -2.531,2.852 -2.462,8.301 0.153,11.083 0.117,0.125 0.596,0.582 0.735,0.611" />
    <path fill="#231f20" d="m 872.1589,89.6908 c 0.11,0.07 0.441,-0.213 0.529,-0.29 2.686,-2.328 2.959,-7.286 1.294,-10.262 -0.323,-0.576 -1.022,-1.522 -1.582,-1.865 -0.076,-0.047 -0.223,-0.151 -0.268,-0.002 -0.013,0.043 -0.009,0.079 0.01,0.12 0.027,0.059 0.404,0.416 0.489,0.519 1.085,1.318 1.584,3.129 1.655,4.819 0.093,2.193 -0.244,4.643 -1.724,6.349 -0.147,0.169 -0.509,0.379 -0.403,0.612" />
    <path fill="none" stroke="#6d6f71" d="m 161.4714,77.8606 v -64.441 h 84.006" />
    <path fill="#6d6f71" d="m 156.485,76.4016 4.986,8.635 4.987,-8.635 z" />
    <path fill="#6d6f71" d="m 244.0181,8.4335 8.635,4.986 -8.635,4.987 z" />
    <path fill="none" stroke="#6d6f71" d="m 570.4714,77.8606 v -64.441 h 84.006" />
    <path fill="#6d6f71" d="m 565.485,76.4016 4.986,8.635 4.987,-8.635 z" />
    <path fill="#6d6f71" d="m 653.0181,8.4335 8.635,4.986 -8.635,4.987 z" />
    <path fill="none" stroke="#6d6f71" d="m 17.1948,77.1808 v -64.441 h 84.006" />
    <path fill="#6d6f71" d="m 12.2084,75.7219 4.986,8.635 4.987,-8.635 z" />
    <path fill="#6d6f71" d="m 99.7415,7.7537 8.635,4.986 -8.635,4.987 z" />
    <path fill="#231f20" d="m 33.319,79.6419 h 1.766 c -0.054,-0.135 -0.042,-0.349 -0.089,-0.475 -0.006,-0.016 -0.011,-0.029 -0.031,-0.033 l -1.75,-0.005 -1.345,-5.901 c -0.422,-1.525 -1.325,-4.082 -3.306,-3.906 -0.585,0.052 -1.228,0.565 -1.04,1.209 0.218,0.743 1.335,0.463 1.194,-0.3 -0.016,-0.087 -0.101,-0.164 -0.118,-0.244 -0.039,-0.186 0.053,-0.303 0.24,-0.325 0.955,-0.111 1.403,1.58 1.575,2.277 l 1.5,7.192 h -1.447 c 0.034,0.134 0.043,0.353 0.089,0.475 0.006,0.017 0.011,0.029 0.03,0.033 l 1.477,0.013 c 0.428,1.269 0.847,2.766 1.959,3.616 0.724,0.554 2.326,0.736 2.711,-0.286 0.421,-1.115 -1.4,-1.362 -1.218,-0.206 0.035,0.223 0.366,0.538 -0.122,0.59 -0.97,0.103 -1.456,-1.275 -1.676,-2.005 -0.17,-0.564 -0.28,-1.144 -0.399,-1.719" />
    <path fill="none" stroke="#6d6f71" d="m 421.1948,77.1808 v -64.441 h 84.006" />
    <path fill="#6d6f71" d="m 416.2084,75.7218 4.986,8.635 4.987,-8.635 z" />
    <path fill="#6d6f71" d="m 503.7415,7.7537 8.635,4.986 -8.635,4.987 z" />
    <path fill="#231f20" d="m 438.319,79.6419 h 1.766 c -0.054,-0.135 -0.042,-0.349 -0.089,-0.475 -0.006,-0.016 -0.011,-0.029 -0.031,-0.033 l -1.75,-0.005 -1.345,-5.901 c -0.422,-1.525 -1.325,-4.082 -3.306,-3.906 -0.585,0.052 -1.228,0.565 -1.04,1.209 0.218,0.743 1.335,0.463 1.194,-0.3 -0.016,-0.087 -0.101,-0.164 -0.118,-0.244 -0.039,-0.186 0.053,-0.303 0.24,-0.325 0.955,-0.111 1.403,1.58 1.575,2.277 l 1.5,7.192 h -1.447 c 0.034,0.134 0.043,0.353 0.089,0.475 0.006,0.017 0.011,0.029 0.03,0.033 l 1.477,0.013 c 0.428,1.269 0.847,2.766 1.959,3.616 0.724,0.554 2.326,0.736 2.711,-0.286 0.421,-1.115 -1.4,-1.362 -1.218,-0.206 0.035,0.223 0.366,0.538 -0.122,0.59 -0.97,0.103 -1.456,-1.275 -1.676,-2.005 -0.17,-0.564 -0.28,-1.144 -0.399,-1.719" />
    <path fill="#231f20" d="m 597.319,79.6419 h 1.766 c -0.054,-0.135 -0.042,-0.349 -0.089,-0.475 -0.006,-0.016 -0.011,-0.029 -0.031,-0.033 l -1.75,-0.005 -1.345,-5.901 c -0.422,-1.525 -1.325,-4.082 -3.306,-3.906 -0.585,0.052 -1.228,0.565 -1.04,1.209 0.218,0.743 1.335,0.463 1.194,-0.3 -0.016,-0.087 -0.101,-0.164 -0.118,-0.244 -0.039,-0.186 0.053,-0.303 0.24,-0.325 0.955,-0.111 1.403,1.58 1.575,2.277 l 1.5,7.192 h -1.447 c 0.034,0.134 0.043,0.353 0.089,0.475 0.006,0.017 0.011,0.029 0.03,0.033 l 1.477,0.013 c 0.428,1.269 0.847,2.766 1.959,3.616 0.724,0.554 2.326,0.736 2.711,-0.286 0.421,-1.115 -1.4,-1.362 -1.218,-0.206 0.035,0.223 0.366,0.538 -0.122,0.59 -0.97,0.103 -1.456,-1.275 -1.676,-2.005 -0.17,-0.564 -0.28,-1.144 -0.399,-1.719" />
    <path fill="#ffffff" d="m 140.8451,46.6113 c 0,-6.98 -5.658,-12.638 -12.638,-12.638 -6.98,0 -12.639,5.658 -12.639,12.638 0,6.98 5.659,12.638 12.639,12.638 6.98,0 12.638,-5.658 12.638,-12.638" />
    <path fill="none" stroke="#231f20" d="m 140.8451,46.6113 c 0,-6.98 -5.658,-12.638 -12.638,-12.638 -6.98,0 -12.639,5.658 -12.639,12.638 0,6.98 5.659,12.638 12.639,12.638 6.98,0 12.638,-5.658 12.638,-12.638 z" />
    <path fill="#231f20" d="m 125.0158,38.7703 0.204,-0.135 c 0.177,-0.072 0.319,-0.091 0.476,0.036 0.459,0.372 0.805,2.098 0.935,2.703 0.329,1.534 0.569,3.089 0.872,4.629 0.375,1.908 0.791,3.836 1.271,5.719 0.219,0.859 0.67,2.948 1.515,3.35 0.475,0.226 1.198,-0.034 1.237,-0.599 0.043,-0.623 -0.86,-0.544 -0.737,0.034 0.049,0.229 0.341,0.271 0.341,0.294 -0.205,0.158 -0.479,0.257 -0.691,0.056 -0.463,-0.438 -0.808,-2.189 -0.946,-2.846 -0.799,-3.797 -1.33,-7.671 -2.428,-11.4 -0.182,-0.617 -0.532,-1.726 -1.1,-2.078 -0.356,-0.221 -0.841,-0.179 -1.136,0.127 -0.232,0.241 -0.303,0.801 0.112,0.853 0.538,0.068 0.613,-0.698 0.075,-0.743" />
    <path fill="none" stroke="#231f20" d="m 514.2482,46.6113 h 38.356" />
    <path fill="#231f20" d="m 551.1449,41.625 8.635,4.986 -8.635,4.987 z" />
    <path fill="#ffffff" d="m 546.8451,46.6113 c 0,-6.98 -5.658,-12.638 -12.638,-12.638 -6.98,0 -12.639,5.658 -12.639,12.638 0,6.98 5.659,12.638 12.639,12.638 6.98,0 12.638,-5.658 12.638,-12.638" />
    <path fill="none" stroke="#231f20" d="m 546.8451,46.6113 c 0,-6.98 -5.658,-12.638 -12.638,-12.638 -6.98,0 -12.639,5.658 -12.639,12.638 0,6.98 5.659,12.638 12.639,12.638 6.98,0 12.638,-5.658 12.638,-12.638 z" />
    <path fill="none" stroke="#231f20" d="m 831.7802,46.6113 h -38.356" />
    <path fill="#231f20" d="m 794.8834,51.5976 -8.635,-4.986 8.635,-4.987 z" />
    <path fill="#ffffff" d="m 824.8451,46.6113 c 0,-6.98 -5.658,-12.638 -12.638,-12.638 -6.98,0 -12.639,5.658 -12.639,12.638 0,6.98 5.659,12.638 12.639,12.638 6.98,0 12.638,-5.658 12.638,-12.638" />
    <path fill="none" stroke="#231f20" d="m 824.8451,46.6113 c 0,-6.98 -5.658,-12.638 -12.638,-12.638 -6.98,0 -12.639,5.658 -12.639,12.638 0,6.98 5.659,12.638 12.639,12.638 6.98,0 12.638,-5.658 12.638,-12.638 z" />
    <path fill="#231f20" d="m 714.2042,71.7776 c -1.927,-0.264 -1.847,-5.115 0.521,-4.929 0.43,0.034 0.847,0.317 1.004,0.72 -0.057,0.971 0.103,2.086 0.007,3.041 -0.075,0.752 -0.794,1.269 -1.532,1.168 m 2.593,3.19 v -7.506 c 0,-0.026 0.077,-0.232 0.099,-0.266 0.112,-0.169 0.463,-0.182 0.645,-0.147 0.07,0.013 0.109,0.076 0.174,0.091 0.452,0.106 0.705,-0.409 1.087,-0.126 0.563,0.597 0.976,1.326 1.461,1.988 -0.164,0.646 -0.257,1.327 -0.46,1.963 -0.236,0.743 -0.544,0.436 -1.161,0.355 l -0.054,0.2 c 0.433,0.097 0.845,0.283 1.285,0.356 0.18,0.029 0.362,0.087 0.534,-0.009 0.359,-0.201 0.475,-1.296 0.566,-1.688 0.012,-0.051 -0.022,-0.058 0.065,-0.049 0.025,0.077 0.074,0.162 0.12,0.229 0.369,0.535 1.07,1.636 1.816,1.558 0.615,-0.064 0.597,-0.929 0.004,-0.929 -0.279,0.001 -0.502,0.314 -0.791,0.165 -0.229,-0.119 -0.718,-0.848 -0.863,-1.093 -0.12,-0.201 -0.233,-0.324 -0.215,-0.573 0.034,-0.46 0.37,-1.761 0.529,-2.222 0.336,-0.981 0.889,0.173 1.24,0.446 l 0.149,-0.068 c 0.036,-0.051 -0.625,-0.934 -0.711,-1.027 -0.291,-0.313 -0.848,-0.645 -1.241,-0.312 -0.312,0.264 -0.53,1.68 -0.676,2.142 -0.01,0.035 -0.008,0.1 -0.055,0.092 -0.306,-0.463 -0.642,-0.913 -0.996,-1.341 -0.212,-0.257 -0.617,-0.784 -0.892,-0.93 -0.417,-0.221 -1.05,-0.062 -1.046,0.483 l -1.605,-0.551 -0.069,0.036 v 0.779 c -0.556,-0.735 -1.362,-0.976 -2.253,-0.746 -1.696,0.438 -2.006,2.566 -1.483,4.002 0.565,1.552 2.316,2.546 3.736,1.351 v 2.204 c 0,0.025 -0.081,0.231 -0.103,0.26 -0.122,0.161 -0.573,0.182 -0.758,0.121 l 0.001,0.23 z" />
    <path fill="#231f20" d="m 717.0882,88.5796 c -1.774,-0.206 -1.789,-3.844 -0.467,-4.69 0.654,-0.419 1.594,-0.311 1.925,0.448 -0.06,1.002 0.107,2.156 0.007,3.141 -0.07,0.687 -0.798,1.178 -1.465,1.101 m 1.466,2.114 c -0.065,0.388 -0.571,0.344 -0.862,0.314 l 0.014,0.201 1.908,0.562 -10e-4,-7.11 c 0.067,-0.214 -0.026,-0.548 0.149,-0.712 0.018,-0.017 0.157,-0.099 0.167,-0.099 h 0.547 l -0.005,-0.178 -1.841,-0.679 c -0.027,-0.014 -0.076,0.035 -0.076,0.045 v 0.746 c -0.378,-0.438 -0.783,-0.737 -1.38,-0.791 -2.429,-0.221 -3.086,2.643 -2.184,4.437 0.674,1.339 2.31,2.088 3.564,0.994 z" />
    <path fill="#231f20" d="m 723.425,77.818 h -11.997 v 0.53 h 11.997 z" />
    <path fill="#231f20" d="m 533.0541,52.4618 -0.331,-2.536 c 0.957,1.083 2.081,2.008 3.503,2.402 1.025,0.284 2.647,0.369 3.12,-0.836 0.708,-1.801 -1.762,-3.203 -3.063,-3.856 2.55,-0.393 3.387,-2.926 1.694,-4.858 -1.408,-1.608 -5.136,-2.89 -6.951,-1.416 -0.068,0.055 -0.374,0.355 -0.388,0.408 -0.089,0.344 0.895,0.884 1.205,0.862 0.195,-0.013 0.548,-0.444 0.771,-0.586 1.49,-0.953 4.387,-0.347 4.786,1.591 0.462,2.245 -1.483,3.189 -3.409,3.126 -0.199,-0.007 -0.437,-0.156 -0.591,0.027 0.36,0.752 1.44,0.887 2.162,1.172 0.883,0.349 2.337,0.84 2.467,1.942 0.232,1.967 -2.199,2.079 -3.415,1.041 -2.249,-1.921 -2.599,-5.715 -3.691,-8.292 -0.275,-0.649 -0.549,-1.398 -1.2,-1.739 -0.125,-0.065 -0.809,-0.371 -0.78,-0.07 0.711,1.261 1.132,2.606 1.48,4.005 0.528,2.128 0.897,4.317 1.168,6.49 -0.368,-0.08 -0.68,-0.37 -1.073,-0.339 -0.028,0.206 0.008,0.263 0.141,0.395 0.214,0.211 1.937,1.091 2.214,1.114 0.061,0.005 0.125,-0.023 0.181,-0.047" />
    <path fill="#231f20" d="m 584.3691,82.8542 -0.316,-2.419 c 0.913,1.033 1.985,1.915 3.342,2.291 0.977,0.271 2.524,0.352 2.977,-0.798 0.675,-1.718 -1.682,-3.055 -2.923,-3.677 2.433,-0.376 3.231,-2.792 1.616,-4.635 -1.343,-1.533 -4.899,-2.757 -6.631,-1.35 -0.064,0.052 -0.356,0.338 -0.369,0.389 -0.086,0.328 0.853,0.843 1.149,0.822 0.186,-0.013 0.523,-0.424 0.735,-0.559 1.421,-0.909 4.185,-0.331 4.566,1.518 0.441,2.141 -1.415,3.042 -3.252,2.982 -0.19,-0.007 -0.417,-0.149 -0.564,0.025 0.343,0.718 1.374,0.847 2.063,1.118 0.842,0.333 2.228,0.802 2.353,1.853 0.221,1.876 -2.098,1.983 -3.258,0.993 -2.145,-1.832 -2.479,-5.451 -3.521,-7.91 -0.262,-0.619 -0.524,-1.334 -1.145,-1.659 -0.118,-0.062 -0.771,-0.354 -0.744,-0.067 0.678,1.203 1.081,2.486 1.412,3.821 0.504,2.03 0.856,4.118 1.115,6.19 -0.351,-0.076 -0.649,-0.352 -1.024,-0.323 -0.027,0.197 0.008,0.251 0.135,0.377 0.203,0.201 1.848,1.041 2.111,1.063 0.059,0.005 0.12,-0.023 0.173,-0.045" />
    <path fill="#231f20" d="m 809.1959,42.2689 c 1.836,-0.049 3.7,0.226 5.205,1.333 1.173,0.862 2.019,2.184 2.104,3.668 0.176,3.06 -2.572,3.745 -5.086,3.682 -0.193,-2.172 -0.679,-4.319 -1.375,-6.381 -0.262,-0.775 -0.599,-1.523 -0.848,-2.302 m -1.126,-0.039 c 0.127,0.104 0.88,2.363 0.981,2.698 0.588,1.948 0.987,3.991 1.098,6.024 -0.773,-0.039 -1.917,-0.099 -2.406,-0.797 -0.169,-0.243 -0.221,-0.612 -0.419,-0.826 -0.147,-0.159 -0.999,-0.64 -1.143,-0.438 0.236,1.392 1.955,2.348 3.216,2.681 1.486,0.392 4.663,0.365 6.114,-0.156 2.32,-0.833 2.824,-3.002 1.901,-5.159 -1.237,-2.889 -5.026,-4.675 -8.031,-4.835 -0.465,-0.025 -1.658,-0.074 -2.063,10e-4 -0.081,0.015 -0.14,0.057 -0.176,0.13 0.099,0.22 0.301,0.371 0.502,0.493 0.114,0.07 0.38,0.146 0.426,0.184" />
    <path fill="#231f20" d="m 190.9044,78.965 c 0.08,-0.483 0.814,-0.431 1.177,-0.462 v -0.169 h -3.447 v 0.169 c 0.598,0.039 1.098,0.026 1.174,0.746 l 0.004,6.05 c -0.05,0.759 -0.825,0.329 -1.248,0.181 -0.025,0 -0.019,0.121 -0.01,0.15 0.039,0.118 1.971,0.951 2.209,1.127 0.035,0.028 0.141,0.009 0.141,-0.029 z" />
    <path fill="#231f20" d="m 186.2729,87.6895 c 0.086,0.018 0.188,-0.012 0.172,-0.115 -0.008,-0.051 -0.536,-0.611 -0.624,-0.724 -2.101,-2.691 -2.112,-8.236 0.068,-10.883 0.107,-0.13 0.508,-0.505 0.546,-0.606 0.026,-0.069 -0.01,-0.152 -0.085,-0.167 -0.184,-0.017 -0.824,0.641 -0.965,0.801 -2.531,2.852 -2.462,8.301 0.153,11.083 0.117,0.125 0.596,0.582 0.735,0.611" />
    <path fill="#231f20" d="m 194.1589,87.6908 c 0.11,0.07 0.441,-0.213 0.529,-0.29 2.686,-2.328 2.959,-7.286 1.294,-10.262 -0.323,-0.576 -1.022,-1.522 -1.582,-1.865 -0.076,-0.047 -0.223,-0.151 -0.268,-0.002 -0.013,0.043 -0.009,0.079 0.01,0.12 0.027,0.059 0.404,0.416 0.489,0.519 1.085,1.318 1.584,3.129 1.655,4.819 0.093,2.193 -0.244,4.643 -1.724,6.349 -0.147,0.169 -0.509,0.379 -0.403,0.612" />
    <path fill="#231f20" d="m 181.2801,80.188 -0.52,-2.467 -0.323,0.021 c 0.052,0.743 0.213,1.403 -0.634,1.697 -0.669,0.232 -2.236,0.255 -2.962,0.202 -0.218,-0.016 -0.471,-0.076 -0.583,-0.281 l -1.113,-3.894 1.613,0.042 c 0.289,0.043 0.587,0.059 0.859,0.173 0.532,0.224 0.75,0.801 1.007,1.272 l 0.295,-0.065 -1.225,-3.761 -0.271,0.064 c 0.094,0.56 0.376,1.593 -0.476,1.684 -0.576,0.062 -1.257,0.037 -1.854,0.064 -0.027,0.002 -0.08,0.011 -0.098,-0.013 -0.307,-1.185 -0.686,-2.355 -0.987,-3.541 -0.07,-0.277 -0.174,-0.599 -0.15,-0.885 0.049,-0.565 0.798,-0.562 1.224,-0.6 v -0.253 h -4.069 l 0.002,0.251 c 0.259,0.053 0.563,0.069 0.793,0.209 0.317,0.193 0.44,0.697 0.544,1.037 0.743,2.445 1.327,4.944 2.049,7.396 0.055,0.257 0.151,0.754 0.059,0.994 -0.134,0.348 -0.882,0.341 -1.193,0.389 l -0.019,0.265 z" />
    <path fill="#231f20" d="m 180.2049,81.0312 h -0.559 l -1.961,1.645 -1.939,-1.645 h -0.537 l 1.969,2.679 1.003,0.009 z" />
    <path fill="none" stroke="#1b75bc" d="m 22.096,30.9697 0.148,-0.023 0.149,0.187 0.148,-0.14 0.149,-0.055 0.148,1.508 0.148,4.239 0.446,18.159 0.148,2.906 0.148,1.193 0.149,0.209 0.148,-0.22 0.297,-0.572 0.148,-0.166 0.149,-0.094 0.148,-0.052 0.148,-0.082 0.149,-0.254 0.148,-0.534 0.297,-1.307 0.148,-0.132 0.149,0.275 0.148,0.106 0.149,-0.823 0.148,-1.986 0.148,-2.473 0.149,-1.821 0.148,-0.42 0.149,0.954 0.593,7.053 0.148,1.001 0.149,0.669 0.148,0.449 0.297,0.585 0.445,0.701 0.149,0.172 0.148,0.101 0.148,0.03 0.297,-0.016 0.149,0.03 0.296,0.15 0.149,0.028 0.148,-0.055 0.297,-0.223 0.148,-0.036 0.149,0.053 0.297,0.248 0.593,0.548 0.148,0.081 0.446,0.16 0.148,0.042 0.148,0.014 0.149,-0.027 0.148,-0.076 0.149,-0.144 0.148,-0.236 0.445,-0.963 0.149,-0.19 0.296,-0.274 0.149,-0.278 0.148,-0.443 0.594,-2.271 0.148,-0.376 0.148,-0.167 0.149,0.046 0.148,0.149 0.149,0.089 0.148,-0.052 0.445,-0.484 0.149,-0.197 0.296,-0.511 0.149,-0.189 0.148,-0.125 0.149,-0.191 0.148,-0.398 0.297,-1.405 0.297,-1.423 0.445,-1.751 0.445,-2.319 0.148,-0.41 0.149,-0.131 0.148,0.057 0.148,0.169 0.149,0.265 0.148,0.387 0.149,0.56 0.296,1.701 0.297,1.725 0.149,0.51 0.148,0.201 0.148,-0.085 0.149,-0.305 0.148,-0.466 0.297,-1.29 0.445,-1.956 0.297,-1.506 0.297,-1.56 0.148,-0.409 0.148,-0.037 0.149,0.266 0.297,0.726 0.148,0.207 0.148,0.068 0.149,-0.095 0.148,-0.287 0.297,-0.843 0.445,-0.977 0.297,-0.874 0.297,-0.712 0.148,-0.559 0.297,-1.539 0.148,-0.495 0.149,-0.115 0.148,0.077 0.148,-0.067 0.149,-0.417 0.148,-0.653 0.149,-0.498 0.148,0.042 0.148,0.673 0.594,4.238 0.148,0.579 0.149,0.245 0.148,-0.071 0.149,-0.298 0.296,-0.749 0.149,-0.268 0.296,-0.401 0.149,-0.265 0.445,-0.983 0.148,-0.174 0.297,-0.252 0.149,-0.162 0.148,-0.079 0.148,0.118 0.149,0.33 0.593,1.842 0.149,0.276 0.148,0.126 0.149,-0.017 0.148,-0.117 0.297,-0.329 0.148,-0.106 0.148,0.019 0.149,0.187 0.297,0.635 0.148,0.192 0.148,0.038 0.149,-0.043 0.148,-0.072 0.149,-0.138 0.148,-0.282 0.148,-0.477 0.149,-0.677 1.187,-6.625 0.148,-0.711 0.149,-0.425 0.148,0.11 0.148,0.783 0.297,2.906 0.297,2.677 0.594,4.417 0.148,0.11 0.148,-0.537 0.297,-1.452 0.149,-0.345 0.148,-0.113 0.148,-0.046 0.149,-0.091 0.148,-0.139 0.149,-0.071 0.148,0.16 0.148,0.481 0.297,1.28 0.148,0.196 0.149,-0.28 0.297,-0.982 0.148,-0.044 0.148,0.445 0.149,0.872 0.148,1.219 0.297,3.223 0.297,3.133 0.148,1.072 0.149,0.73 0.148,0.488 0.148,0.321 0.149,0.139 0.148,-0.153 0.149,-0.56 0.445,-2.695 0.148,-0.198 0.149,0.277 0.148,0.397 0.148,0.119 0.149,-0.322 0.296,-1.115 0.149,-0.251 0.148,0.002 0.149,0.13 0.148,0.204 0.148,0.317 0.446,1.226 0.296,0.358 0.149,0.16 0.148,0.05 0.149,-0.182 0.296,-0.679 0.149,-0.111 0.297,0.13 0.148,-0.039 0.148,-0.102 0.149,-0.068 0.148,-0.045 0.148,-0.131 0.297,-0.475 0.149,-0.032 0.148,0.193 0.297,0.664 0.445,1.084 0.148,0.152 0.149,-0.01 0.148,-0.134 0.149,-0.255 0.148,-0.4 0.297,-1.034 0.148,-0.331 0.149,-0.09 0.148,0.014 0.148,-0.069 0.149,-0.171 0.148,-0.094 0.148,0.18 0.149,0.497 0.297,1.307 0.148,0.484 0.148,0.331 0.446,0.771 1.335,3.065 0.149,0.212 0.148,0.092 0.148,-0.034 0.149,-0.158 0.445,-0.714 0.148,-0.034 0.149,0.187 0.148,0.407 0.297,1.066 0.148,0.343 0.149,0.038 0.148,-0.323 0.148,-0.678 0.149,-0.987 0.297,-2.606 0.296,-2.604 0.149,-0.799 0.148,-0.164 0.149,0.573 0.148,1.204 0.297,3.006 0.148,1.14 0.148,0.685 0.149,0.267 0.148,-0.011 0.149,-0.12 0.148,-0.083 0.148,0.044 0.149,0.181 0.148,0.232 0.149,0.154 0.148,0.023 0.148,-0.024 0.149,0.084 0.148,0.276 0.445,1.217 0.446,1.021 0.296,0.673 0.297,0.633 0.297,0.709 0.148,0.272 0.149,0.151 0.148,0.019 0.148,-0.087 0.594,-0.574 0.148,-0.075 0.149,-0.031 0.148,0.013 0.149,0.05 0.593,0.297 0.297,0.065 0.297,0.074 0.593,0.262 0.297,0.05 0.148,0.013 0.149,-0.004 0.297,-0.07 0.148,-0.062 0.148,-0.094 0.149,-0.155 0.148,-0.263 0.149,-0.499 0.148,-1.013 0.148,-1.907 0.149,-3.02 0.297,-7.617 0.296,-5.335 0.149,-2.681 0.296,-7.191 0.149,-2.341 0.297,-1.562 0.148,-1.924 0.297,-5.418 0.148,-0.359 0.149,1.841 0.296,5.602 0.149,2.071 0.148,1.337 0.149,0.162 0.148,-1.55 0.297,-5.355 0.148,-0.744 0.297,1.879 0.148,0.075 0.149,-0.794 0.296,-1.949 0.149,0.145 0.148,2.163 0.149,4.39 0.296,9.805 0.149,2.003 0.148,-0.79 0.149,-2.955 0.296,-7.022 0.149,-1.596 0.148,0.259 0.149,1.693 0.593,9.758 0.149,-0.347 0.148,-3.494 0.445,-17.32 0.149,-2.518 0.148,-0.598 0.148,0.413 0.149,0.606 0.148,0.301 0.148,-0.146 0.446,-1.306 0.148,-0.084" />
    <path fill="none" stroke="#1b75bc" d="m 426.0959,30.9697 0.148,-0.023 0.149,0.187 0.148,-0.14 0.149,-0.055 0.148,1.508 0.148,4.239 0.446,18.159 0.148,2.906 0.148,1.193 0.149,0.209 0.148,-0.22 0.297,-0.572 0.148,-0.166 0.149,-0.094 0.148,-0.052 0.148,-0.082 0.149,-0.254 0.148,-0.534 0.297,-1.307 0.148,-0.132 0.149,0.275 0.148,0.106 0.149,-0.823 0.148,-1.986 0.148,-2.473 0.149,-1.821 0.148,-0.42 0.149,0.954 0.593,7.053 0.149,1.001 0.148,0.669 0.148,0.449 0.297,0.585 0.445,0.701 0.149,0.172 0.148,0.101 0.148,0.03 0.297,-0.016 0.149,0.03 0.296,0.15 0.149,0.028 0.148,-0.055 0.297,-0.223 0.148,-0.036 0.149,0.053 0.297,0.248 0.593,0.548 0.148,0.081 0.446,0.16 0.148,0.042 0.148,0.014 0.149,-0.027 0.148,-0.076 0.149,-0.144 0.148,-0.236 0.445,-0.963 0.149,-0.19 0.296,-0.274 0.149,-0.278 0.148,-0.443 0.594,-2.271 0.148,-0.376 0.148,-0.167 0.149,0.046 0.148,0.149 0.149,0.089 0.148,-0.052 0.445,-0.484 0.149,-0.197 0.296,-0.511 0.149,-0.189 0.148,-0.125 0.149,-0.191 0.148,-0.398 0.297,-1.405 0.297,-1.423 0.445,-1.751 0.445,-2.319 0.148,-0.41 0.149,-0.131 0.148,0.057 0.148,0.169 0.149,0.265 0.148,0.387 0.149,0.56 0.296,1.701 0.297,1.725 0.149,0.51 0.148,0.201 0.148,-0.085 0.149,-0.305 0.148,-0.466 0.297,-1.29 0.445,-1.956 0.297,-1.506 0.297,-1.56 0.148,-0.409 0.148,-0.037 0.149,0.266 0.297,0.726 0.148,0.207 0.148,0.068 0.149,-0.095 0.148,-0.287 0.297,-0.843 0.445,-0.977 0.297,-0.874 0.297,-0.712 0.148,-0.559 0.297,-1.539 0.148,-0.495 0.149,-0.115 0.148,0.077 0.148,-0.067 0.149,-0.417 0.148,-0.653 0.149,-0.498 0.148,0.042 0.148,0.673 0.594,4.238 0.148,0.579 0.149,0.245 0.148,-0.071 0.149,-0.298 0.296,-0.749 0.149,-0.268 0.296,-0.401 0.149,-0.265 0.445,-0.983 0.148,-0.174 0.297,-0.252 0.149,-0.162 0.148,-0.079 0.148,0.118 0.149,0.33 0.593,1.842 0.149,0.276 0.148,0.126 0.149,-0.017 0.148,-0.117 0.297,-0.329 0.148,-0.106 0.149,0.019 0.148,0.187 0.297,0.635 0.148,0.192 0.148,0.038 0.149,-0.043 0.148,-0.072 0.149,-0.138 0.148,-0.282 0.148,-0.477 0.149,-0.677 1.187,-6.625 0.148,-0.711 0.149,-0.425 0.148,0.11 0.148,0.783 0.297,2.906 0.297,2.677 0.594,4.417 0.148,0.11 0.148,-0.537 0.297,-1.452 0.149,-0.345 0.148,-0.113 0.148,-0.046 0.149,-0.091 0.148,-0.139 0.149,-0.071 0.148,0.16 0.148,0.481 0.297,1.28 0.149,0.196 0.148,-0.28 0.297,-0.982 0.148,-0.044 0.148,0.445 0.149,0.872 0.148,1.219 0.297,3.223 0.297,3.133 0.148,1.072 0.149,0.73 0.148,0.488 0.148,0.321 0.149,0.139 0.148,-0.153 0.149,-0.56 0.445,-2.695 0.148,-0.198 0.149,0.277 0.148,0.397 0.148,0.119 0.149,-0.322 0.296,-1.115 0.149,-0.251 0.148,0.002 0.149,0.13 0.148,0.204 0.148,0.317 0.446,1.226 0.296,0.358 0.149,0.16 0.148,0.05 0.149,-0.182 0.296,-0.679 0.149,-0.111 0.297,0.13 0.148,-0.039 0.148,-0.102 0.149,-0.068 0.148,-0.045 0.148,-0.131 0.297,-0.475 0.149,-0.032 0.148,0.193 0.297,0.664 0.445,1.084 0.148,0.152 0.149,-0.01 0.148,-0.134 0.149,-0.255 0.148,-0.4 0.297,-1.034 0.148,-0.331 0.149,-0.09 0.148,0.014 0.148,-0.069 0.149,-0.171 0.148,-0.094 0.148,0.18 0.149,0.497 0.297,1.307 0.148,0.484 0.148,0.331 0.446,0.771 1.335,3.065 0.149,0.212 0.148,0.092 0.148,-0.034 0.149,-0.158 0.445,-0.714 0.148,-0.034 0.149,0.187 0.148,0.407 0.297,1.066 0.148,0.343 0.149,0.038 0.148,-0.323 0.148,-0.678 0.149,-0.987 0.297,-2.606 0.296,-2.604 0.149,-0.799 0.148,-0.164 0.149,0.573 0.148,1.204 0.297,3.006 0.148,1.14 0.149,0.685 0.148,0.267 0.148,-0.011 0.149,-0.12 0.148,-0.083 0.148,0.044 0.149,0.181 0.148,0.232 0.149,0.154 0.148,0.023 0.148,-0.024 0.149,0.084 0.148,0.276 0.445,1.217 0.446,1.021 0.296,0.673 0.297,0.633 0.297,0.709 0.148,0.272 0.149,0.151 0.148,0.019 0.148,-0.087 0.594,-0.574 0.148,-0.075 0.149,-0.031 0.148,0.013 0.149,0.05 0.593,0.297 0.297,0.065 0.297,0.074 0.593,0.262 0.297,0.05 0.148,0.013 0.149,-0.004 0.297,-0.07 0.148,-0.062 0.148,-0.094 0.149,-0.155 0.148,-0.263 0.149,-0.499 0.148,-1.013 0.148,-1.907 0.149,-3.02 0.297,-7.617 0.296,-5.335 0.149,-2.681 0.297,-7.191 0.148,-2.341 0.297,-1.562 0.148,-1.924 0.297,-5.418 0.148,-0.359 0.149,1.841 0.296,5.602 0.149,2.071 0.148,1.337 0.149,0.162 0.148,-1.55 0.297,-5.355 0.148,-0.744 0.297,1.879 0.148,0.075 0.149,-0.794 0.297,-1.949 0.148,0.145 0.148,2.163 0.149,4.39 0.296,9.805 0.149,2.003 0.148,-0.79 0.149,-2.955 0.296,-7.022 0.149,-1.596 0.148,0.259 0.149,1.693 0.593,9.758 0.149,-0.347 0.148,-3.494 0.445,-17.32 0.149,-2.518 0.148,-0.598 0.148,0.413 0.149,0.606 0.148,0.301 0.148,-0.146 0.446,-1.306 0.148,-0.084" />
    <path fill="none" stroke="#231f20" d="m 574.791,31.3899 0.148,-0.291 0.149,0.217 0.148,0.866 0.148,1.667 0.149,2.553 0.296,7.301 0.297,7.81 0.148,3.07 0.149,2.229 0.148,1.413 0.148,0.755 0.149,0.304 0.148,0.039 0.148,-0.096 0.149,-0.165 0.148,-0.213 0.297,-0.577 0.445,-1.143 0.148,-0.445 0.148,-0.549 0.149,-0.714 0.593,-3.484 0.148,-0.194 0.149,0.338 0.148,0.815 0.742,5.65 0.148,0.701 0.148,0.535 0.297,0.734 0.297,0.466 0.148,0.162 0.148,0.122 0.149,0.087 0.296,0.107 0.297,0.06 0.297,0.011 0.445,-0.05 0.148,0.008 0.148,0.037 0.149,0.07 0.296,0.212 0.445,0.351 0.297,0.173 0.148,0.058 0.149,0.037 0.148,0.011 0.148,-0.023 0.149,-0.064 0.148,-0.112 0.148,-0.162 0.297,-0.444 0.593,-1.071 0.297,-0.678 0.297,-0.878 0.445,-1.336 0.148,-0.317 0.148,-0.223 0.149,-0.141 0.296,-0.15 0.149,-0.074 0.148,-0.103 0.297,-0.308 0.296,-0.416 0.297,-0.509 0.297,-0.698 0.297,-1.007 0.445,-1.953 0.741,-3.353 0.149,-0.507 0.148,-0.37 0.148,-0.208 0.148,-0.037 0.149,0.131 0.148,0.292 0.148,0.438 0.297,1.214 0.297,1.352 0.148,0.566 0.148,0.409 0.149,0.216 0.148,0.007 0.149,-0.19 0.148,-0.36 0.297,-1.085 0.445,-2.069 0.445,-2.005 0.148,-0.488 0.148,-0.332 0.149,-0.166 0.148,-0.022 0.148,0.073 0.297,0.183 0.148,0.005 0.149,-0.09 0.148,-0.186 0.297,-0.589 0.445,-1.149 0.445,-1.354 0.741,-2.494 0.297,-0.681 0.297,-0.493 0.148,-0.132 0.148,0.02 0.149,0.226 0.148,0.45 0.297,1.395 0.296,1.437 0.149,0.511 0.148,0.314 0.148,0.117 0.149,-0.048 0.148,-0.166 0.297,-0.506 0.89,-1.662 0.296,-0.378 0.149,-0.108 0.148,-0.035 0.148,0.053 0.149,0.149 0.148,0.241 0.297,0.666 0.296,0.658 0.149,0.237 0.148,0.153 0.148,0.071 0.149,0.007 0.296,-0.053 0.149,0.004 0.148,0.054 0.148,0.103 0.445,0.382 0.149,0.048 0.148,-0.035 0.148,-0.136 0.149,-0.251 0.148,-0.377 0.148,-0.508 0.297,-1.36 0.89,-4.831 0.148,-0.566 0.149,-0.353 0.148,-0.069 0.148,0.263 0.149,0.599 0.148,0.895 0.297,2.335 0.296,2.424 0.297,1.84 0.148,0.538 0.149,0.248 0.148,-0.011 0.148,-0.197 0.445,-0.843 0.149,-0.178 0.148,-0.092 0.148,0.002 0.149,0.098 0.148,0.187 0.445,0.719 0.148,0.132 0.297,0.092 0.148,0.107 0.149,0.278 0.148,0.524 0.148,0.8 0.297,2.312 0.445,3.954 0.297,1.911 0.148,0.586 0.148,0.324 0.149,0.067 0.148,-0.168 0.148,-0.354 0.445,-1.371 0.149,-0.315 0.148,-0.21 0.445,-0.474 0.297,-0.404 0.148,-0.146 0.148,-0.054 0.149,0.055 0.148,0.159 0.297,0.529 0.296,0.58 0.149,0.229 0.148,0.159 0.148,0.079 0.149,-10e-4 0.148,-0.069 0.593,-0.44 0.594,-0.29 0.445,-0.265 0.148,-0.028 0.148,0.041 0.149,0.123 0.148,0.198 0.593,0.967 0.149,0.105 0.148,-0.003 0.148,-0.115 0.149,-0.213 0.741,-1.407 0.149,-0.143 0.148,-0.066 0.148,0.021 0.149,0.123 0.148,0.231 0.148,0.332 1.039,2.793 1.187,2.701 0.148,0.245 0.148,0.172 0.149,0.09 0.148,0.01 0.148,-0.054 0.297,-0.16 0.148,-0.024 0.148,0.06 0.149,0.15 0.445,0.652 0.148,0.063 0.148,-0.133 0.149,-0.371 0.148,-0.617 0.297,-1.815 0.297,-1.987 0.148,-0.753 0.148,-0.439 0.149,-0.056 0.148,0.334 0.148,0.659 0.594,3.364 0.148,0.509 0.148,0.329 0.149,0.198 0.296,0.223 0.297,0.208 0.297,0.257 0.148,0.162 0.148,0.203 0.297,0.553 0.445,1.073 0.742,1.808 0.296,0.639 0.297,0.472 0.148,0.137 0.149,0.063 0.148,-0.004 0.148,-0.055 0.594,-0.332 0.148,-0.034 0.148,-0.005 0.149,0.023 0.296,0.096 0.742,0.276 0.742,0.261 0.296,0.053 0.149,0.003 0.148,-0.018 0.148,-0.045 0.149,-0.088 0.148,-0.156 0.148,-0.271 0.149,-0.456 0.148,-0.735 0.148,-1.117 0.149,-1.586 0.148,-2.088 0.297,-5.455 0.89,-18.224 0.296,-4.634 0.297,-3.581 0.148,-1.268 0.149,-0.73 0.148,-0.072 0.148,0.584 0.594,4.065 0.148,0.074 0.148,-0.454 0.445,-2.381 0.149,-0.519 0.148,-0.326 0.148,-0.189 0.149,-0.045 0.148,0.214 0.148,0.666 0.149,1.287 0.148,1.934 0.445,6.838 0.148,1.182 0.149,0.185 0.148,-0.681 0.297,-2.361 0.148,-0.764 0.148,-0.091 0.149,0.595 0.296,2.196 0.149,0.739 0.148,-0.09 0.148,-1.184 0.149,-2.279 0.593,-12.383 0.148,-1.861 0.149,-1.135 0.148,-0.605 0.148,-0.304 0.297,-0.317 0.148,-0.091 0.149,0.02 0.148,0.212" />
    <path fill="none" stroke="#231f20" d="m 704.791,31.3899 0.148,-0.291 0.149,0.217 0.148,0.866 0.148,1.667 0.149,2.553 0.296,7.301 0.297,7.81 0.148,3.07 0.149,2.229 0.148,1.413 0.148,0.755 0.149,0.304 0.148,0.039 0.148,-0.096 0.149,-0.165 0.148,-0.213 0.297,-0.577 0.445,-1.143 0.148,-0.445 0.148,-0.549 0.149,-0.714 0.593,-3.484 0.148,-0.194 0.149,0.338 0.148,0.815 0.742,5.65 0.148,0.701 0.148,0.535 0.297,0.734 0.297,0.466 0.148,0.162 0.148,0.122 0.149,0.087 0.296,0.107 0.297,0.06 0.297,0.011 0.445,-0.05 0.148,0.008 0.148,0.037 0.149,0.07 0.296,0.212 0.445,0.351 0.297,0.173 0.148,0.058 0.149,0.037 0.148,0.011 0.148,-0.023 0.149,-0.064 0.148,-0.112 0.148,-0.162 0.297,-0.444 0.593,-1.071 0.297,-0.678 0.297,-0.878 0.445,-1.336 0.148,-0.317 0.148,-0.223 0.149,-0.141 0.296,-0.15 0.149,-0.074 0.148,-0.103 0.297,-0.308 0.296,-0.416 0.297,-0.509 0.297,-0.698 0.297,-1.007 0.445,-1.953 0.741,-3.353 0.149,-0.507 0.148,-0.37 0.148,-0.208 0.148,-0.037 0.149,0.131 0.148,0.292 0.148,0.438 0.297,1.214 0.297,1.352 0.148,0.566 0.148,0.409 0.149,0.216 0.148,0.007 0.149,-0.19 0.148,-0.36 0.297,-1.085 0.445,-2.069 0.445,-2.005 0.148,-0.488 0.148,-0.332 0.149,-0.166 0.148,-0.022 0.148,0.073 0.297,0.183 0.148,0.005 0.149,-0.09 0.148,-0.186 0.297,-0.589 0.445,-1.149 0.445,-1.354 0.741,-2.494 0.297,-0.681 0.297,-0.493 0.148,-0.132 0.148,0.02 0.149,0.226 0.148,0.45 0.297,1.395 0.296,1.437 0.149,0.511 0.148,0.314 0.148,0.117 0.149,-0.048 0.148,-0.166 0.297,-0.506 0.89,-1.662 0.296,-0.378 0.149,-0.108 0.148,-0.035 0.148,0.053 0.149,0.149 0.148,0.241 0.297,0.666 0.296,0.658 0.149,0.237 0.148,0.153 0.148,0.071 0.149,0.007 0.296,-0.053 0.149,0.004 0.148,0.054 0.148,0.103 0.445,0.382 0.149,0.048 0.148,-0.035 0.148,-0.136 0.149,-0.251 0.148,-0.377 0.148,-0.508 0.297,-1.36 0.89,-4.831 0.148,-0.566 0.149,-0.353 0.148,-0.069 0.148,0.263 0.149,0.599 0.148,0.895 0.297,2.335 0.296,2.424 0.297,1.84 0.148,0.538 0.149,0.248 0.148,-0.011 0.148,-0.197 0.445,-0.843 0.149,-0.178 0.148,-0.092 0.148,0.002 0.149,0.098 0.148,0.187 0.445,0.719 0.148,0.132 0.297,0.092 0.148,0.107 0.149,0.278 0.148,0.524 0.148,0.8 0.297,2.312 0.445,3.954 0.297,1.911 0.148,0.586 0.148,0.324 0.149,0.067 0.148,-0.168 0.148,-0.354 0.445,-1.371 0.149,-0.315 0.148,-0.21 0.445,-0.474 0.297,-0.404 0.148,-0.146 0.148,-0.054 0.149,0.055 0.148,0.159 0.297,0.529 0.296,0.58 0.149,0.229 0.148,0.159 0.148,0.079 0.149,-10e-4 0.148,-0.069 0.593,-0.44 0.594,-0.29 0.445,-0.265 0.148,-0.028 0.148,0.041 0.149,0.123 0.148,0.198 0.593,0.967 0.149,0.105 0.148,-0.003 0.148,-0.115 0.149,-0.213 0.741,-1.407 0.149,-0.143 0.148,-0.066 0.148,0.021 0.149,0.123 0.148,0.231 0.148,0.332 1.039,2.793 1.187,2.701 0.148,0.245 0.148,0.172 0.149,0.09 0.148,0.01 0.148,-0.054 0.297,-0.16 0.148,-0.024 0.148,0.06 0.149,0.15 0.445,0.652 0.148,0.063 0.148,-0.133 0.149,-0.371 0.148,-0.617 0.297,-1.815 0.297,-1.987 0.148,-0.753 0.148,-0.439 0.149,-0.056 0.148,0.334 0.148,0.659 0.594,3.364 0.148,0.509 0.148,0.329 0.149,0.198 0.296,0.223 0.297,0.208 0.297,0.257 0.148,0.162 0.148,0.203 0.297,0.553 0.445,1.073 0.742,1.808 0.296,0.639 0.297,0.472 0.148,0.137 0.149,0.063 0.148,-0.004 0.148,-0.055 0.594,-0.332 0.148,-0.034 0.148,-0.005 0.149,0.023 0.296,0.096 0.742,0.276 0.742,0.261 0.296,0.053 0.149,0.003 0.148,-0.018 0.148,-0.045 0.149,-0.088 0.148,-0.156 0.148,-0.271 0.149,-0.456 0.148,-0.735 0.148,-1.117 0.149,-1.586 0.148,-2.088 0.297,-5.455 0.89,-18.224 0.296,-4.634 0.297,-3.581 0.148,-1.268 0.149,-0.73 0.148,-0.072 0.148,0.584 0.594,4.065 0.148,0.074 0.148,-0.454 0.445,-2.381 0.149,-0.519 0.148,-0.326 0.148,-0.189 0.149,-0.045 0.148,0.214 0.148,0.666 0.149,1.287 0.148,1.934 0.445,6.838 0.148,1.182 0.149,0.185 0.148,-0.681 0.297,-2.361 0.148,-0.764 0.148,-0.091 0.149,0.595 0.296,2.196 0.149,0.739 0.148,-0.09 0.148,-1.184 0.149,-2.279 0.593,-12.383 0.148,-1.861 0.149,-1.135 0.148,-0.605 0.148,-0.304 0.297,-0.317 0.148,-0.091 0.149,0.02 0.148,0.212" />
    <path fill="none" stroke="#231f20" d="m 166.5075,16.5188 0.445,0.343 2.079,1.723 0.891,0.675 0.743,0.541 1.188,1 4.158,3.636 1.782,1.536 1.782,1.431 1.485,1.143 1.039,0.718 1.485,0.991 1.782,1.263 1.931,1.211 1.336,0.79 1.336,0.706 0.891,0.484 1.931,1.112 2.376,1.328 2.821,1.592 2.079,1.031 1.337,0.788 1.93,1.134 0.594,0.394 1.188,0.9 1.485,1.069 1.782,1.28 4.01,2.909 2.227,1.613 1.485,1.173 2.821,2.269 1.337,0.994 2.673,2.204 1.782,1.582 4.9,4.327 0.446,0.275 0.445,0.212 0.743,0.251 0.742,0.204 1.04,0.369 1.336,0.406 0.446,0.234 0.445,0.224 0.891,0.367 0.742,0.376 0.446,0.102" />
    <path fill="none" stroke="#00a650" d="m 296.5075,16.5188 0.445,0.343 2.079,1.723 0.891,0.675 0.743,0.541 1.188,1 4.158,3.636 1.782,1.536 1.782,1.431 1.485,1.143 1.039,0.718 1.485,0.991 1.782,1.263 1.931,1.211 1.336,0.79 1.336,0.706 0.891,0.484 1.931,1.112 2.376,1.328 2.821,1.592 2.079,1.031 1.337,0.788 1.93,1.134 0.594,0.394 1.188,0.9 1.485,1.069 1.782,1.28 4.01,2.909 2.227,1.613 1.485,1.173 2.821,2.269 1.337,0.994 2.673,2.204 1.782,1.582 4.9,4.327 0.446,0.275 0.445,0.212 0.743,0.251 0.742,0.204 1.04,0.369 1.336,0.406 0.446,0.234 0.445,0.224 0.891,0.367 0.742,0.376 0.446,0.102" />
    <path fill="none" stroke="#00a650" d="m 841.9661,16.6859 0.594,0.266 0.446,0.269 0.595,0.463 2.229,1.82 1.784,1.371 2.08,1.802 5.202,4.498 2.229,1.755 1.04,0.743 2.527,1.74 1.04,0.72 1.784,1.125 1.337,0.8 1.338,0.72 1.189,0.652 2.081,1.187 1.932,1.085 2.823,1.604 2.378,1.207 3.716,2.241 1.189,0.888 1.634,1.182 2.23,1.614 6.242,4.568 2.229,1.798 1.486,1.186 1.486,1.126 2.23,1.837 1.635,1.44 5.053,4.498 0.445,0.321 0.446,0.257 0.595,0.254 0.743,0.229 0.743,0.246 1.04,0.344 1.041,0.344 1.634,0.743 0.892,0.401 0.446,0.126 1.04,0.194" />
  </g>
</svg>
